<svg xmlns="http://www.w3.org/2000/svg" viewBox="0 0 100 100" fill="currentColor">
  <path d="M50 6L52 10 56 12 52 14 50 18 48 14 44 12 48 10Z M77 17L79 21 83 23 79 25 77 29 75 25 71 23 75 21Z M88 44L90 48 94 50 90 52 88 56 86 52 82 50 86 48Z M77 71L79 75 83 77 79 79 77 83 75 79 71 77 75 75Z M50 82L52 86 56 88 52 90 50 94 48 90 44 88 48 86Z M23 71L25 75 29 77 25 79 23 83 21 79 17 77 21 75Z M12 44L14 48 18 50 14 52 12 56 10 52 6 50 10 48Z M23 17L25 21 29 23 25 25 23 29 21 25 17 23 21 21Z"/>
</svg>
