<svg xmlns="http://www.w3.org/2000/svg" width="512" height="512" viewBox="0 0 512 512"><defs><linearGradient id="lg" x1="0" y1="0" x2="1" y2="1"><stop offset="0%" stop-color="#09090b"/><stop offset="100%" stop-color="#433946"/></linearGradient></defs><rect width="512" height="512" rx="77" fill="url(#lg)"/><rect x="2.048" y="2.048" width="507.904" height="507.904" rx="74.952" fill="none" stroke="#f6f6f4" stroke-width="4.096" stroke-opacity="0.25"/><path d="M207.87 318.59Q211.20 318.59 213.12 321.66Q215.04 324.74 215.04 330.11L215.04 330.11Q215.04 340.35 210.18 345.98L210.18 345.98Q199.17 359.55 186.24 368.26Q173.31 376.96 156.93 376.96L156.93 376.96Q134.40 376.96 123.52 356.48Q112.64 336 112.64 303.49L112.64 303.49Q112.64 272.26 120.70 232.32Q128.77 192.38 144.51 163.71Q160.26 135.04 182.02 135.04L182.02 135.04Q194.30 135.04 201.34 146.43Q208.38 157.82 208.38 179.07L208.38 179.07Q208.38 209.54 191.49 249.73Q174.59 289.92 145.66 329.34L145.66 329.34Q147.46 339.84 151.55 344.32Q155.65 348.80 162.30 348.80L162.30 348.80Q172.80 348.80 180.74 342.78Q188.67 336.77 200.96 322.18L200.96 322.18Q204.03 318.59 207.87 318.59L207.87 318.59ZM176.38 160.38Q170.50 160.38 163.07 181.63Q155.65 202.88 150.02 234.37Q144.38 265.86 143.87 294.78L143.87 294.78Q162.05 264.83 172.80 234.75Q183.55 204.67 183.55 179.84L183.55 179.84Q183.55 160.38 176.38 160.38L176.38 160.38Z" fill="#ffffff"/><g transform="translate(271.4,179.2) scale(1.5360)"><path d="M30 5 L70 5 L70 52 L95 52 L50 95 L5 52 L30 52 Z" fill="#ffffff"/></g></svg>